0
SECTION
2
HEADER
9
$INSUNITS
70
4
9
$ACADVER
1
AC1014
9
$HANDSEED
5
FFFF
0
ENDSEC
0
SECTION
2
TABLES
0
TABLE
2
VPORT
5
8
100
AcDbSymbolTable
0
ENDTAB
0
TABLE
2
LTYPE
5
5
100
AcDbSymbolTable
0
LTYPE
5
14
100
AcDbSymbolTableRecord
100
AcDbLinetypeTableRecord
2
BYBLOCK
70
0
0
LTYPE
5
15
100
AcDbSymbolTableRecord
100
AcDbLinetypeTableRecord
2
BYLAYER
70
0
0
ENDTAB
0
TABLE
2
LAYER
5
2
100
AcDbSymbolTable
70
2
0
LAYER
5
50
100
AcDbSymbolTableRecord
100
AcDbLayerTableRecord
2
0
70
0
6
CONTINUOUS
0
ENDTAB
0
TABLE
2
STYLE
5
3
100
AcDbSymbolTable
70
1
0
STYLE
5
11
100
AcDbSymbolTableRecord
100
AcDbTextStyleTableRecord
2
STANDARD
70
0
0
ENDTAB
0
TABLE
2
VIEW
5
6
100
AcDbSymbolTable
70
0
0
ENDTAB
0
TABLE
2
UCS
5
7
100
AcDbSymbolTable
70
0
0
ENDTAB
0
TABLE
2
APPID
5
9
100
AcDbSymbolTable
70
2
0
APPID
5
12
100
AcDbSymbolTableRecord
100
AcDbRegAppTableRecord
2
ACAD
70
0
0
ENDTAB
0
TABLE
2
DIMSTYLE
5
A
100
AcDbSymbolTable
70
1
0
ENDTAB
0
TABLE
2
BLOCK_RECORD
5
1
100
AcDbSymbolTable
70
1
0
BLOCK_RECORD
5
1F
100
AcDbSymbolTableRecord
100
AcDbBlockTableRecord
2
*MODEL_SPACE
0
BLOCK_RECORD
5
1B
100
AcDbSymbolTableRecord
100
AcDbBlockTableRecord
2
*PAPER_SPACE
0
ENDTAB
0
ENDSEC
0
SECTION
2
BLOCKS
0
BLOCK
5
20
100
AcDbEntity
100
AcDbBlockBegin
2
*MODEL_SPACE
0
ENDBLK
5
21
100
AcDbEntity
100
AcDbBlockEnd
0
BLOCK
5
1C
100
AcDbEntity
100
AcDbBlockBegin
2
*PAPER_SPACE
0
ENDBLK
5
1D
100
AcDbEntity
100
AcDbBlockEnd
0
ENDSEC
0
SECTION
2
ENTITIES
0
SPLINE
5
100
100
AcDbEntity
8
0
100
AcDbSpline
70
4
71
5
72
36
73
30
74
0
42
0.000000001
43
0.0000000001
44
0.0000000001
40
0
40
0
40
0
40
0
40
0
40
0
40
0.040000000000000001
40
0.080000000000000002
40
0.12
40
0.16
40
0.20000000000000001
40
0.24000000000000002
40
0.28000000000000003
40
0.32000000000000001
40
0.35999999999999999
40
0.39999999999999997
40
0.43999999999999995
40
0.47999999999999993
40
0.51999999999999991
40
0.55999999999999994
40
0.59999999999999998
40
0.64000000000000001
40
0.68000000000000005
40
0.72000000000000008
40
0.76000000000000012
40
0.80000000000000016
40
0.84000000000000019
40
0.88000000000000023
40
0.92000000000000026
40
0.9600000000000003
40
1
40
1
40
1
40
1
40
1
40
1
41
1
41
1
41
1
41
1
41
1
41
1
41
1
41
1
41
1
41
1
41
1
41
1
41
1
41
1
41
1
41
1
41
1
41
1
41
1
41
1
41
1
41
1
41
1
41
1
41
1
41
1
41
1
41
1
41
1
41
1
10
160
20
145.99999999999997
30
0
10
158.70145562694432
20
145.87807095968765
30
0
10
155.93428807895563
20
145.39701177490582
30
0
10
151.27329586089584
20
143.96383851651029
30
0
10
144.09935244901015
20
140.68692721813372
30
0
10
133.91669578436824
20
134.65866454090312
30
0
10
123.06167097656203
20
127.15868823680444
30
0
10
112.16336025710447
20
118.68644307956758
30
0
10
101.87236864208003
20
109.68782646619542
30
0
10
92.779092721549929
20
100.50057317794263
30
0
10
85.37146537979541
20
91.210350081584508
30
0
10
79.893006744436406
20
81.719358539294049
30
0
10
76.25380751819641
20
72.155832113951647
30
0
10
74.18418191218376
20
62.690179052980227
30
0
10
73.306346212864611
20
53.539581466835209
30
0
10
73.241455445220254
20
44.892706480625847
30
0
10
73.692481981663065
20
36.873522211545186
30
0
10
74.558536428315819
20
29.474456742571302
30
0
10
75.889570590564006
20
22.593701955637524
30
0
10
77.795596911755993
20
16.099101599065669
30
0
10
80.377067527091839
20
9.8787106381573047
30
0
10
83.634045106274186
20
3.9058436325385144
30
0
10
87.422529790460743
20
-1.7305166690407046
30
0
10
91.531937696574204
20
-6.8855458148974762
30
0
10
95.737092178472636
20
-11.399478163293722
30
0
10
99.864626177360776
20
-15.149736300238148
30
0
10
103.04439482974277
20
-17.499952401600261
30
0
10
105.3517048798664
20
-18.892973234384023
30
0
10
106.8561907590027
20
-19.658230219498151
30
0
10
107.59999999999998
20
-20.000000000000014
30
0
0
SPLINE
5
101
100
AcDbEntity
8
0
100
AcDbSpline
70
4
71
5
72
36
73
30
74
0
42
0.000000001
43
0.0000000001
44
0.0000000001
40
0
40
0
40
0
40
0
40
0
40
0
40
0.040000000000000001
40
0.080000000000000002
40
0.12
40
0.16
40
0.20000000000000001
40
0.24000000000000002
40
0.28000000000000003
40
0.32000000000000001
40
0.35999999999999999
40
0.39999999999999997
40
0.43999999999999995
40
0.47999999999999993
40
0.51999999999999991
40
0.55999999999999994
40
0.59999999999999998
40
0.64000000000000001
40
0.68000000000000005
40
0.72000000000000008
40
0.76000000000000012
40
0.80000000000000016
40
0.84000000000000019
40
0.88000000000000023
40
0.92000000000000026
40
0.9600000000000003
40
1
40
1
40
1
40
1
40
1
40
1
41
1
41
1
41
1
41
1
41
1
41
1
41
1
41
1
41
1
41
1
41
1
41
1
41
1
41
1
41
1
41
1
41
1
41
1
41
1
41
1
41
1
41
1
41
1
41
1
41
1
41
1
41
1
41
1
41
1
41
1
10
160
20
145.99999999999997
30
0
10
161.29854437305568
20
145.87807095968765
30
0
10
164.06571192104437
20
145.39701177490582
30
0
10
168.72670413910416
20
143.96383851651029
30
0
10
175.90064755098985
20
140.68692721813372
30
0
10
186.08330421563176
20
134.65866454090312
30
0
10
196.93832902343797
20
127.15868823680444
30
0
10
207.83663974289553
20
118.68644307956758
30
0
10
218.12763135791997
20
109.68782646619542
30
0
10
227.22090727845006
20
100.50057317794263
30
0
10
234.62853462020459
20
91.210350081584508
30
0
10
240.10699325556359
20
81.719358539294049
30
0
10
243.74619248180358
20
72.155832113951647
30
0
10
245.81581808781624
20
62.690179052980227
30
0
10
246.69365378713539
20
53.539581466835209
30
0
10
246.75854455477975
20
44.892706480625847
30
0
10
246.30751801833694
20
36.873522211545186
30
0
10
245.44146357168418
20
29.474456742571302
30
0
10
244.11042940943599
20
22.593701955637524
30
0
10
242.20440308824402
20
16.099101599065669
30
0
10
239.62293247290816
20
9.8787106381573047
30
0
10
236.36595489372581
20
3.9058436325385144
30
0
10
232.57747020953926
20
-1.7305166690407046
30
0
10
228.4680623034258
20
-6.8855458148974762
30
0
10
224.26290782152736
20
-11.399478163293722
30
0
10
220.13537382263922
20
-15.149736300238148
30
0
10
216.95560517025723
20
-17.499952401600261
30
0
10
214.64829512013358
20
-18.892973234384023
30
0
10
213.14380924099731
20
-19.658230219498151
30
0
10
212.40000000000003
20
-20.000000000000014
30
0
0
LINE
5
102
100
AcDbEntity
8
0
100
AcDbLine
10
160
20
54.999999999999986
30
0
11
160
21
145.99999999999997
31
0
0
LINE
5
103
100
AcDbEntity
8
0
100
AcDbLine
10
160
20
54.999999999999986
30
0
11
74.945199989630211
21
25.046767545471798
31
0
0
LINE
5
104
100
AcDbEntity
8
0
100
AcDbLine
10
160
20
54.999999999999986
30
0
11
107.59999999999998
21
-20.000000000000018
31
0
0
LINE
5
105
100
AcDbEntity
8
0
100
AcDbLine
10
160
20
54.999999999999986
30
0
11
212.40000000000003
21
-20.000000000000018
31
0
0
LINE
5
106
100
AcDbEntity
8
0
100
AcDbLine
10
160
20
54.999999999999986
30
0
11
245.05480001036977
21
25.046767545471798
31
0
0
ENDSEC
0
SECTION
2
OBJECTS
0
DICTIONARY
5
C
100
AcDbDictionary
3
ACAD_GROUP
350
D
3
ACAD_MLINESTYLE
350
17
0
DICTIONARY
5
D
100
AcDbDictionary
0
DICTIONARY
5
1A
330
C
100
AcDbDictionary
0
DICTIONARY
5
17
100
AcDbDictionary
0
ENDSEC
0
EOF
